<?xml version="1.0" encoding="UTF-8" standalone="no"?>
<!-- Created with Inkscape (http://www.inkscape.org/) -->

<svg
   xmlns:dc="http://purl.org/dc/elements/1.1/"
   xmlns:cc="http://creativecommons.org/ns#"
   xmlns:rdf="http://www.w3.org/1999/02/22-rdf-syntax-ns#"
   xmlns:svg="http://www.w3.org/2000/svg"
   xmlns="http://www.w3.org/2000/svg"
   xmlns:sodipodi="http://sodipodi.sourceforge.net/DTD/sodipodi-0.dtd"
   xmlns:inkscape="http://www.inkscape.org/namespaces/inkscape"
   width="361.125"
   height="138.0625"
   id="svg3845"
   version="1.1"
   inkscape:version="0.48.4 r9939"
   sodipodi:docname="New document 5">
  <defs
     id="defs3847">
    <clipPath
       clipPathUnits="userSpaceOnUse"
       id="clipPath498">
      <path
         inkscape:connector-curvature="0"
         d="m 810,2442.4 1120,0 0,2900 -1120,0 0,-2900 z"
         id="path500" />
    </clipPath>
  </defs>
  <sodipodi:namedview
     id="base"
     pagecolor="#ffffff"
     bordercolor="#666666"
     borderopacity="1.0"
     inkscape:pageopacity="0.0"
     inkscape:pageshadow="2"
     inkscape:zoom="0.35"
     inkscape:cx="235.56328"
     inkscape:cy="-207.44286"
     inkscape:document-units="px"
     inkscape:current-layer="layer1"
     showgrid="false"
     fit-margin-top="0"
     fit-margin-left="0"
     fit-margin-right="0"
     fit-margin-bottom="0"
     inkscape:window-width="1598"
     inkscape:window-height="879"
     inkscape:window-x="0"
     inkscape:window-y="19"
     inkscape:window-maximized="0" />
  <metadata
     id="metadata3850">
    <rdf:RDF>
      <cc:Work
         rdf:about="">
        <dc:format>image/svg+xml</dc:format>
        <dc:type
           rdf:resource="http://purl.org/dc/dcmitype/StillImage" />
        <dc:title></dc:title>
      </cc:Work>
    </rdf:RDF>
  </metadata>
  <g
     inkscape:label="Layer 1"
     inkscape:groupmode="layer"
     id="layer1"
     transform="translate(-139.43672,-186.85682)">
    <g
       id="g494"
       transform="matrix(0,-0.125,-0.125,0,806.55,426.16932)">
      <g
         clip-path="url(#clipPath498)"
         id="g496">
        <path
           inkscape:connector-curvature="0"
           id="path502"
           style="fill:none;stroke:#0000ff;stroke-width:9;stroke-linecap:butt;stroke-linejoin:miter;stroke-miterlimit:10;stroke-opacity:1;stroke-dasharray:none"
           d="m 1097.6,5152.4 327.6,108 -601.2,-370.8 903.6,244.8 -151.2,136.8 -32.4,-507.6 367.2,-57.6 -698.4,-25.2 507.6,-115.2 -129.6,-104.4 10.8,176.4 -111.6,-226.8 144,-144 -205.2,43.2 0,151.2 136.8,-273.6 -140.4,43.2 -64.8,86.4 -108,-90 162,-75.6 -140.4,-43.2 205.2,-21.6 -72,43.2 -28.8,-57.6 46.8,-50.4 -86.4,-3.6 -10.8,-50.4 25.2,-14.4 36,25.2 25.2,-54 7.2,-43.2 -32.4,-54 -50.4,0 -43.2,75.6 61.2,-3.6" />
        <path
           inkscape:connector-curvature="0"
           id="path504"
           style="fill:none;stroke:#000000;stroke-width:9;stroke-linecap:butt;stroke-linejoin:miter;stroke-miterlimit:10;stroke-opacity:1;stroke-dasharray:none"
           d="m 1370,2812.4 c -149.11,0 -270,483.54 -270,1080 0,596.47 120.89,1080 270,1080 149.11,0 270,-483.53 270,-1080 0,-596.46 -120.89,-1080 -270,-1080 z" />
        <path
           inkscape:connector-curvature="0"
           id="path506"
           style="fill:none;stroke:#000000;stroke-width:9;stroke-linecap:butt;stroke-linejoin:miter;stroke-miterlimit:10;stroke-opacity:1;stroke-dasharray:none"
           d="m 1370,2992.4 c -99.41,0 -180,402.95 -180,900 0,497.05 80.59,900 180,900 99.41,0 180,-402.95 180,-900 0,-497.05 -80.59,-900 -180,-900 z" />
        <path
           inkscape:connector-curvature="0"
           id="path508"
           style="fill:none;stroke:#000000;stroke-width:9;stroke-linecap:butt;stroke-linejoin:miter;stroke-miterlimit:10;stroke-opacity:1;stroke-dasharray:none"
           d="m 1370,3262.4 c -49.7,0 -90,282.06 -90,630 0,347.94 40.3,630 90,630 49.7,0 90,-282.06 90,-630 0,-347.94 -40.3,-630 -90,-630 z" />
        <path
           inkscape:connector-curvature="0"
           id="path510"
           style="fill:none;stroke:#000000;stroke-width:9;stroke-linecap:butt;stroke-linejoin:miter;stroke-miterlimit:10;stroke-opacity:1;stroke-dasharray:none"
           d="m 1370,2452.4 c -298.23,0 -540,644.71 -540,1440 0,795.29 241.77,1440 540,1440 298.23,0 540,-644.71 540,-1440 0,-795.29 -241.77,-1440 -540,-1440 z" />
        <path
           inkscape:connector-curvature="0"
           id="path512"
           style="fill:#ff0000;fill-opacity:1;fill-rule:evenodd;stroke:none"
           d="m 1370,3863.6 c -15.9,0 -28.8,12.9 -28.8,28.8 0,15.9 12.9,28.8 28.8,28.8 15.9,0 28.8,-12.9 28.8,-28.8 0,-15.9 -12.9,-28.8 -28.8,-28.8" />
        <path
           inkscape:connector-curvature="0"
           id="path514"
           style="fill:none;stroke:#ff0000;stroke-width:9;stroke-linecap:butt;stroke-linejoin:miter;stroke-miterlimit:10;stroke-opacity:1;stroke-dasharray:none"
           d="m 1370,3863.6 c -15.9,0 -28.8,12.9 -28.8,28.8 0,15.9 12.9,28.8 28.8,28.8 15.9,0 28.8,-12.9 28.8,-28.8 0,-15.9 -12.9,-28.8 -28.8,-28.8 z" />
        <path
           inkscape:connector-curvature="0"
           id="path516"
           style="fill:#0000ff;fill-opacity:1;fill-rule:evenodd;stroke:none"
           d="m 1100,5123.6 c -15.9,0 -28.8,12.9 -28.8,28.8 0,15.9 12.9,28.8 28.8,28.8 15.9,0 28.8,-12.9 28.8,-28.8 0,-15.9 -12.9,-28.8 -28.8,-28.8" />
        <path
           inkscape:connector-curvature="0"
           id="path518"
           style="fill:none;stroke:#0000ff;stroke-width:9;stroke-linecap:butt;stroke-linejoin:miter;stroke-miterlimit:10;stroke-opacity:1;stroke-dasharray:none"
           d="m 1100,5123.6 c -15.9,0 -28.8,12.9 -28.8,28.8 0,15.9 12.9,28.8 28.8,28.8 15.9,0 28.8,-12.9 28.8,-28.8 0,-15.9 -12.9,-28.8 -28.8,-28.8 z" />
        <path
           inkscape:connector-curvature="0"
           id="path520"
           style="fill:none;stroke:#000000;stroke-width:9;stroke-linecap:butt;stroke-linejoin:miter;stroke-miterlimit:10;stroke-opacity:1;stroke-dasharray:none"
           d="m 1370,2632.4 c -198.82,0 -360,564.13 -360,1260 0,695.88 161.18,1260 360,1260 198.82,0 360,-564.12 360,-1260 0,-695.87 -161.18,-1260 -360,-1260 z" />
      </g>
    </g>
  </g>
</svg>
